<svg width="113" height="300" viewBox="0 0 113 300" fill="none" xmlns="http://www.w3.org/2000/svg">
<g clip-path="url(#clip0_2_12)">
<path d="M39 -1.5C21.1667 21 -5.3 83 31.5 151C77.5 236 25.5 328 31.5 349.5" stroke="#FFE680"/>
<path d="M65.5 -1.5C58.5 33.1667 41.9 106.7 31.5 123.5C18.5 144.5 8 232 10 264C11.6 289.6 14.6667 312 16 320" stroke="#FFE680"/>
<path d="M71 -1.5C65.3333 28.8333 50.4 97.3 36 128.5C18 167.5 14 207 25 313" stroke="#FFCD00"/>
<path d="M32.9999 0C18.1666 20.3333 -14.1001 77.4 21.4999 143C57.0999 208.6 46.4999 248.5 32.9999 318.5" stroke="#FFCD00"/>
<path d="M36.8631 -90C51.3043 -64.9453 71.5219 5.37214 36.8631 86.2043C2.2044 167.037 2.62628 267.748 7.16956 308" stroke="#FFCD00"/>
<path d="M80 -1.51105L80 314.498" stroke="#FFCD00"/>
<path d="M90 -1.51105L90 314.498" stroke="#FFCD00"/>
<path d="M100 -2L100 314.009" stroke="#FFCD00"/>
<path d="M110 -7L110 309.009" stroke="#FFCD00"/>
<path d="M44.5 -7C34.488 21.115 12.2388 91.147 36.2675 146.355C60.2962 201.562 63.5729 244.502 66 313" stroke="#FFCD00"/>
<path d="M85 -3L85 301.864" stroke="#FFE680"/>
<path d="M95 -2L95 302.864" stroke="#FFE680"/>
<path d="M105 -2L105 302.864" stroke="#FFE680"/>
</g>
<defs>
<clipPath id="clip0_2_12">
<rect width="113" height="300" fill="white"/>
</clipPath>
</defs>
</svg>
